<?xml version="1.0" encoding="UTF-8" standalone="no"?>
<!DOCTYPE svg PUBLIC "-//W3C//DTD SVG 1.1//EN"
 "http://www.w3.org/Graphics/SVG/1.1/DTD/svg11.dtd">
<!-- Generated by graphviz version 2.40.1 (20161225.0304)
 -->
<!-- Title: godep Pages: 1 -->
<svg width="3558pt" height="514pt"
 viewBox="0.00 0.00 3557.50 514.00" xmlns="http://www.w3.org/2000/svg" xmlns:xlink="http://www.w3.org/1999/xlink">
<g id="graph0" class="graph" transform="scale(1 1) rotate(0) translate(4 510)">
<title>godep</title>
<polygon fill="#ffffff" stroke="transparent" points="-4,4 -4,-510 3553.5,-510 3553.5,4 -4,4"/>
<!-- github.com/ipfs/go&#45;ipfs/core/commands/filesystem/... -->
<g id="node1" class="node">
<title>github.com/ipfs/go&#45;ipfs/core/commands/filesystem/...</title>
<g id="a_node1"><a xlink:href="https://godoc.org/github.com/ipfs/go-ipfs/core/commands/filesystem/..." xlink:title="github.com/ipfs/go&#45;ipfs/core/commands/filesystem/..." target="_blank">
<path fill="#afeeee" stroke="#afeeee" d="M2202,-506C2202,-506 1853,-506 1853,-506 1847,-506 1841,-500 1841,-494 1841,-494 1841,-482 1841,-482 1841,-476 1847,-470 1853,-470 1853,-470 2202,-470 2202,-470 2208,-470 2214,-476 2214,-482 2214,-482 2214,-494 2214,-494 2214,-500 2208,-506 2202,-506"/>
<text text-anchor="middle" x="2027.5" y="-484.3" font-family="Times-Roman" font-size="14.00" fill="#000000">github.com/ipfs/go&#45;ipfs/core/commands/filesystem/...</text>
</a>
</g>
</g>
<!-- github.com/ipfs/go&#45;ipfs/core/commands/filesystem/manager -->
<g id="node2" class="node">
<title>github.com/ipfs/go&#45;ipfs/core/commands/filesystem/manager</title>
<g id="a_node2"><a xlink:href="https://godoc.org/github.com/ipfs/go-ipfs/core/commands/filesystem/manager" xlink:title="github.com/ipfs/go&#45;ipfs/core/commands/filesystem/manager" target="_blank">
<path fill="#afeeee" stroke="#afeeee" d="M2533.5,-412C2533.5,-412 2137.5,-412 2137.5,-412 2131.5,-412 2125.5,-406 2125.5,-400 2125.5,-400 2125.5,-388 2125.5,-388 2125.5,-382 2131.5,-376 2137.5,-376 2137.5,-376 2533.5,-376 2533.5,-376 2539.5,-376 2545.5,-382 2545.5,-388 2545.5,-388 2545.5,-400 2545.5,-400 2545.5,-406 2539.5,-412 2533.5,-412"/>
<text text-anchor="middle" x="2335.5" y="-390.3" font-family="Times-Roman" font-size="14.00" fill="#000000">github.com/ipfs/go&#45;ipfs/core/commands/filesystem/manager</text>
</a>
</g>
</g>
<!-- github.com/ipfs/go&#45;ipfs/core/commands/filesystem/...&#45;&gt;github.com/ipfs/go&#45;ipfs/core/commands/filesystem/manager -->
<g id="edge1" class="edge">
<title>github.com/ipfs/go&#45;ipfs/core/commands/filesystem/...&#45;&gt;github.com/ipfs/go&#45;ipfs/core/commands/filesystem/manager</title>
<path fill="none" stroke="#000000" d="M2169.75,-469.8759C2169.75,-469.8759 2169.75,-417.0685 2169.75,-417.0685"/>
<polygon fill="#000000" stroke="#000000" points="2171.5001,-417.0685 2169.75,-412.0685 2168.0001,-417.0685 2171.5001,-417.0685"/>
</g>
<!-- github.com/ipfs/go&#45;ipfs/core/commands/filesystem/manager/host -->
<g id="node3" class="node">
<title>github.com/ipfs/go&#45;ipfs/core/commands/filesystem/manager/host</title>
<g id="a_node3"><a xlink:href="https://godoc.org/github.com/ipfs/go-ipfs/core/commands/filesystem/manager/host" xlink:title="github.com/ipfs/go&#45;ipfs/core/commands/filesystem/manager/host" target="_blank">
<path fill="#afeeee" stroke="#afeeee" d="M2235,-224C2235,-224 1804,-224 1804,-224 1798,-224 1792,-218 1792,-212 1792,-212 1792,-200 1792,-200 1792,-194 1798,-188 1804,-188 1804,-188 2235,-188 2235,-188 2241,-188 2247,-194 2247,-200 2247,-200 2247,-212 2247,-212 2247,-218 2241,-224 2235,-224"/>
<text text-anchor="middle" x="2019.5" y="-202.3" font-family="Times-Roman" font-size="14.00" fill="#000000">github.com/ipfs/go&#45;ipfs/core/commands/filesystem/manager/host</text>
</a>
</g>
</g>
<!-- github.com/ipfs/go&#45;ipfs/core/commands/filesystem/...&#45;&gt;github.com/ipfs/go&#45;ipfs/core/commands/filesystem/manager/host -->
<g id="edge2" class="edge">
<title>github.com/ipfs/go&#45;ipfs/core/commands/filesystem/...&#45;&gt;github.com/ipfs/go&#45;ipfs/core/commands/filesystem/manager/host</title>
<path fill="none" stroke="#000000" d="M2030.8333,-469.9306C2030.8333,-469.9306 2030.8333,-229.2838 2030.8333,-229.2838"/>
<polygon fill="#000000" stroke="#000000" points="2032.5834,-229.2838 2030.8333,-224.2838 2029.0834,-229.2839 2032.5834,-229.2838"/>
</g>
<!-- github.com/ipfs/go&#45;ipfs/core/commands/filesystem/manager/host/9p -->
<g id="node4" class="node">
<title>github.com/ipfs/go&#45;ipfs/core/commands/filesystem/manager/host/9p</title>
<g id="a_node4"><a xlink:href="https://godoc.org/github.com/ipfs/go-ipfs/core/commands/filesystem/manager/host/9p" xlink:title="github.com/ipfs/go&#45;ipfs/core/commands/filesystem/manager/host/9p" target="_blank">
<path fill="#afeeee" stroke="#afeeee" d="M1072.5,-318C1072.5,-318 620.5,-318 620.5,-318 614.5,-318 608.5,-312 608.5,-306 608.5,-306 608.5,-294 608.5,-294 608.5,-288 614.5,-282 620.5,-282 620.5,-282 1072.5,-282 1072.5,-282 1078.5,-282 1084.5,-288 1084.5,-294 1084.5,-294 1084.5,-306 1084.5,-306 1084.5,-312 1078.5,-318 1072.5,-318"/>
<text text-anchor="middle" x="846.5" y="-296.3" font-family="Times-Roman" font-size="14.00" fill="#000000">github.com/ipfs/go&#45;ipfs/core/commands/filesystem/manager/host/9p</text>
</a>
</g>
</g>
<!-- github.com/ipfs/go&#45;ipfs/core/commands/filesystem/...&#45;&gt;github.com/ipfs/go&#45;ipfs/core/commands/filesystem/manager/host/9p -->
<g id="edge3" class="edge">
<title>github.com/ipfs/go&#45;ipfs/core/commands/filesystem/...&#45;&gt;github.com/ipfs/go&#45;ipfs/core/commands/filesystem/manager/host/9p</title>
<path fill="none" stroke="#000000" d="M1840.8553,-488C1490.0182,-488 767.1667,-488 767.1667,-488 767.1667,-488 767.1667,-323.0262 767.1667,-323.0262"/>
<polygon fill="#000000" stroke="#000000" points="768.9168,-323.0262 767.1667,-318.0262 765.4168,-323.0263 768.9168,-323.0262"/>
</g>
<!-- github.com/ipfs/go&#45;ipfs/core/commands/filesystem/manager/host/fuse -->
<g id="node5" class="node">
<title>github.com/ipfs/go&#45;ipfs/core/commands/filesystem/manager/host/fuse</title>
<g id="a_node5"><a xlink:href="https://godoc.org/github.com/ipfs/go-ipfs/core/commands/filesystem/manager/host/fuse" xlink:title="github.com/ipfs/go&#45;ipfs/core/commands/filesystem/manager/host/fuse" target="_blank">
<path fill="#afeeee" stroke="#afeeee" d="M1971.5,-318C1971.5,-318 1507.5,-318 1507.5,-318 1501.5,-318 1495.5,-312 1495.5,-306 1495.5,-306 1495.5,-294 1495.5,-294 1495.5,-288 1501.5,-282 1507.5,-282 1507.5,-282 1971.5,-282 1971.5,-282 1977.5,-282 1983.5,-288 1983.5,-294 1983.5,-294 1983.5,-306 1983.5,-306 1983.5,-312 1977.5,-318 1971.5,-318"/>
<text text-anchor="middle" x="1739.5" y="-296.3" font-family="Times-Roman" font-size="14.00" fill="#000000">github.com/ipfs/go&#45;ipfs/core/commands/filesystem/manager/host/fuse</text>
</a>
</g>
</g>
<!-- github.com/ipfs/go&#45;ipfs/core/commands/filesystem/...&#45;&gt;github.com/ipfs/go&#45;ipfs/core/commands/filesystem/manager/host/fuse -->
<g id="edge4" class="edge">
<title>github.com/ipfs/go&#45;ipfs/core/commands/filesystem/...&#45;&gt;github.com/ipfs/go&#45;ipfs/core/commands/filesystem/manager/host/fuse</title>
<path fill="none" stroke="#000000" d="M1912.25,-469.9738C1912.25,-469.9738 1912.25,-323.2479 1912.25,-323.2479"/>
<polygon fill="#000000" stroke="#000000" points="1914.0001,-323.2479 1912.25,-318.2479 1910.5001,-323.2479 1914.0001,-323.2479"/>
</g>
<!-- github.com/ipfs/go&#45;ipfs/filesystem -->
<g id="node6" class="node">
<title>github.com/ipfs/go&#45;ipfs/filesystem</title>
<g id="a_node6"><a xlink:href="https://godoc.org/github.com/ipfs/go-ipfs/filesystem" xlink:title="github.com/ipfs/go&#45;ipfs/filesystem" target="_blank">
<path fill="#afeeee" stroke="#afeeee" d="M3350.5,-36C3350.5,-36 3130.5,-36 3130.5,-36 3124.5,-36 3118.5,-30 3118.5,-24 3118.5,-24 3118.5,-12 3118.5,-12 3118.5,-6 3124.5,0 3130.5,0 3130.5,0 3350.5,0 3350.5,0 3356.5,0 3362.5,-6 3362.5,-12 3362.5,-12 3362.5,-24 3362.5,-24 3362.5,-30 3356.5,-36 3350.5,-36"/>
<text text-anchor="middle" x="3240.5" y="-14.3" font-family="Times-Roman" font-size="14.00" fill="#000000">github.com/ipfs/go&#45;ipfs/filesystem</text>
</a>
</g>
</g>
<!-- github.com/ipfs/go&#45;ipfs/core/commands/filesystem/...&#45;&gt;github.com/ipfs/go&#45;ipfs/filesystem -->
<g id="edge5" class="edge">
<title>github.com/ipfs/go&#45;ipfs/core/commands/filesystem/...&#45;&gt;github.com/ipfs/go&#45;ipfs/filesystem</title>
<path fill="none" stroke="#000000" d="M2078.1667,-469.7884C2078.1667,-417.3943 2078.1667,-270 2078.1667,-270 2078.1667,-270 2707.3,-270 2707.3,-270 2707.3,-270 2707.3,-22 2707.3,-22 2707.3,-22 3113.1731,-22 3113.1731,-22"/>
<polygon fill="#000000" stroke="#000000" points="3113.1732,-23.7501 3118.1731,-22 3113.1731,-20.2501 3113.1732,-23.7501"/>
</g>
<!-- github.com/ipfs/go&#45;ipfs/core/commands/filesystem/manager&#45;&gt;github.com/ipfs/go&#45;ipfs/core/commands/filesystem/manager/host -->
<g id="edge6" class="edge">
<title>github.com/ipfs/go&#45;ipfs/core/commands/filesystem/manager&#45;&gt;github.com/ipfs/go&#45;ipfs/core/commands/filesystem/manager/host</title>
<path fill="none" stroke="#000000" d="M2206.5,-375.9738C2206.5,-375.9738 2206.5,-229.2479 2206.5,-229.2479"/>
<polygon fill="#000000" stroke="#000000" points="2208.2501,-229.2479 2206.5,-224.2479 2204.7501,-229.2479 2208.2501,-229.2479"/>
</g>
<!-- github.com/ipfs/go&#45;ipfs/core/commands/filesystem/manager&#45;&gt;github.com/ipfs/go&#45;ipfs/core/commands/filesystem/manager/host/9p -->
<g id="edge7" class="edge">
<title>github.com/ipfs/go&#45;ipfs/core/commands/filesystem/manager&#45;&gt;github.com/ipfs/go&#45;ipfs/core/commands/filesystem/manager/host/9p</title>
<path fill="none" stroke="#000000" d="M2125.2203,-400C1732.2498,-400 925.8333,-400 925.8333,-400 925.8333,-400 925.8333,-323.3415 925.8333,-323.3415"/>
<polygon fill="#000000" stroke="#000000" points="927.5834,-323.3415 925.8333,-318.3415 924.0834,-323.3416 927.5834,-323.3415"/>
</g>
<!-- github.com/ipfs/go&#45;ipfs/core/commands/filesystem/manager&#45;&gt;github.com/ipfs/go&#45;ipfs/core/commands/filesystem/manager/host/fuse -->
<g id="edge8" class="edge">
<title>github.com/ipfs/go&#45;ipfs/core/commands/filesystem/manager&#45;&gt;github.com/ipfs/go&#45;ipfs/core/commands/filesystem/manager/host/fuse</title>
<path fill="none" stroke="#000000" d="M2166,-375.7663C2166,-349.9906 2166,-306 2166,-306 2166,-306 1988.5791,-306 1988.5791,-306"/>
<polygon fill="#000000" stroke="#000000" points="1988.5791,-304.2501 1983.5791,-306 1988.579,-307.7501 1988.5791,-304.2501"/>
</g>
<!-- github.com/ipfs/go&#45;ipfs/core/commands/filesystem/manager&#45;&gt;github.com/ipfs/go&#45;ipfs/filesystem -->
<g id="edge10" class="edge">
<title>github.com/ipfs/go&#45;ipfs/core/commands/filesystem/manager&#45;&gt;github.com/ipfs/go&#45;ipfs/filesystem</title>
<path fill="none" stroke="#000000" d="M2291.25,-375.7027C2291.25,-308.474 2291.25,-79 2291.25,-79 2291.25,-79 3205.2,-79 3205.2,-79 3205.2,-79 3205.2,-41.302 3205.2,-41.302"/>
<polygon fill="#000000" stroke="#000000" points="3206.9501,-41.302 3205.2,-36.302 3203.4501,-41.302 3206.9501,-41.302"/>
</g>
<!-- github.com/ipfs/go&#45;ipfs/core/commands/filesystem/manager/host/options -->
<g id="node7" class="node">
<title>github.com/ipfs/go&#45;ipfs/core/commands/filesystem/manager/host/options</title>
<g id="a_node7"><a xlink:href="https://godoc.org/github.com/ipfs/go-ipfs/core/commands/filesystem/manager/host/options" xlink:title="github.com/ipfs/go&#45;ipfs/core/commands/filesystem/manager/host/options" target="_blank">
<path fill="#afeeee" stroke="#afeeee" d="M1089,-224C1089,-224 604,-224 604,-224 598,-224 592,-218 592,-212 592,-212 592,-200 592,-200 592,-194 598,-188 604,-188 604,-188 1089,-188 1089,-188 1095,-188 1101,-194 1101,-200 1101,-200 1101,-212 1101,-212 1101,-218 1095,-224 1089,-224"/>
<text text-anchor="middle" x="846.5" y="-202.3" font-family="Times-Roman" font-size="14.00" fill="#000000">github.com/ipfs/go&#45;ipfs/core/commands/filesystem/manager/host/options</text>
</a>
</g>
</g>
<!-- github.com/ipfs/go&#45;ipfs/core/commands/filesystem/manager&#45;&gt;github.com/ipfs/go&#45;ipfs/core/commands/filesystem/manager/host/options -->
<g id="edge9" class="edge">
<title>github.com/ipfs/go&#45;ipfs/core/commands/filesystem/manager&#45;&gt;github.com/ipfs/go&#45;ipfs/core/commands/filesystem/manager/host/options</title>
<path fill="none" stroke="#000000" d="M2125.2745,-388C1770.2189,-388 1090,-388 1090,-388 1090,-388 1090,-229.1162 1090,-229.1162"/>
<polygon fill="#000000" stroke="#000000" points="1091.7501,-229.1162 1090,-224.1162 1088.2501,-229.1163 1091.7501,-229.1162"/>
</g>
<!-- github.com/ipfs/go&#45;ipfs/filesystem/interface/ipfscore -->
<g id="node8" class="node">
<title>github.com/ipfs/go&#45;ipfs/filesystem/interface/ipfscore</title>
<g id="a_node8"><a xlink:href="https://godoc.org/github.com/ipfs/go-ipfs/filesystem/interface/ipfscore" xlink:title="github.com/ipfs/go&#45;ipfs/filesystem/interface/ipfscore" target="_blank">
<path fill="#afeeee" stroke="#afeeee" d="M2689.5,-224C2689.5,-224 2347.5,-224 2347.5,-224 2341.5,-224 2335.5,-218 2335.5,-212 2335.5,-212 2335.5,-200 2335.5,-200 2335.5,-194 2341.5,-188 2347.5,-188 2347.5,-188 2689.5,-188 2689.5,-188 2695.5,-188 2701.5,-194 2701.5,-200 2701.5,-200 2701.5,-212 2701.5,-212 2701.5,-218 2695.5,-224 2689.5,-224"/>
<text text-anchor="middle" x="2518.5" y="-202.3" font-family="Times-Roman" font-size="14.00" fill="#000000">github.com/ipfs/go&#45;ipfs/filesystem/interface/ipfscore</text>
</a>
</g>
</g>
<!-- github.com/ipfs/go&#45;ipfs/core/commands/filesystem/manager&#45;&gt;github.com/ipfs/go&#45;ipfs/filesystem/interface/ipfscore -->
<g id="edge11" class="edge">
<title>github.com/ipfs/go&#45;ipfs/core/commands/filesystem/manager&#45;&gt;github.com/ipfs/go&#45;ipfs/filesystem/interface/ipfscore</title>
<path fill="none" stroke="#000000" d="M2405.5,-375.9738C2405.5,-375.9738 2405.5,-229.2479 2405.5,-229.2479"/>
<polygon fill="#000000" stroke="#000000" points="2407.2501,-229.2479 2405.5,-224.2479 2403.7501,-229.2479 2407.2501,-229.2479"/>
</g>
<!-- github.com/ipfs/go&#45;ipfs/filesystem/interface/keyfs -->
<g id="node9" class="node">
<title>github.com/ipfs/go&#45;ipfs/filesystem/interface/keyfs</title>
<g id="a_node9"><a xlink:href="https://godoc.org/github.com/ipfs/go-ipfs/filesystem/interface/keyfs" xlink:title="github.com/ipfs/go&#45;ipfs/filesystem/interface/keyfs" target="_blank">
<path fill="#afeeee" stroke="#afeeee" d="M2949.5,-318C2949.5,-318 2623.5,-318 2623.5,-318 2617.5,-318 2611.5,-312 2611.5,-306 2611.5,-306 2611.5,-294 2611.5,-294 2611.5,-288 2617.5,-282 2623.5,-282 2623.5,-282 2949.5,-282 2949.5,-282 2955.5,-282 2961.5,-288 2961.5,-294 2961.5,-294 2961.5,-306 2961.5,-306 2961.5,-312 2955.5,-318 2949.5,-318"/>
<text text-anchor="middle" x="2786.5" y="-296.3" font-family="Times-Roman" font-size="14.00" fill="#000000">github.com/ipfs/go&#45;ipfs/filesystem/interface/keyfs</text>
</a>
</g>
</g>
<!-- github.com/ipfs/go&#45;ipfs/core/commands/filesystem/manager&#45;&gt;github.com/ipfs/go&#45;ipfs/filesystem/interface/keyfs -->
<g id="edge12" class="edge">
<title>github.com/ipfs/go&#45;ipfs/core/commands/filesystem/manager&#45;&gt;github.com/ipfs/go&#45;ipfs/filesystem/interface/keyfs</title>
<path fill="none" stroke="#000000" d="M2475.5,-375.6585C2475.5,-346.7893 2475.5,-294 2475.5,-294 2475.5,-294 2606.4567,-294 2606.4567,-294"/>
<polygon fill="#000000" stroke="#000000" points="2606.4567,-295.7501 2611.4567,-294 2606.4567,-292.2501 2606.4567,-295.7501"/>
</g>
<!-- github.com/ipfs/go&#45;ipfs/filesystem/interface/mfs -->
<g id="node10" class="node">
<title>github.com/ipfs/go&#45;ipfs/filesystem/interface/mfs</title>
<g id="a_node10"><a xlink:href="https://godoc.org/github.com/ipfs/go-ipfs/filesystem/interface/mfs" xlink:title="github.com/ipfs/go&#45;ipfs/filesystem/interface/mfs" target="_blank">
<path fill="#afeeee" stroke="#afeeee" d="M3537.5,-224C3537.5,-224 3223.5,-224 3223.5,-224 3217.5,-224 3211.5,-218 3211.5,-212 3211.5,-212 3211.5,-200 3211.5,-200 3211.5,-194 3217.5,-188 3223.5,-188 3223.5,-188 3537.5,-188 3537.5,-188 3543.5,-188 3549.5,-194 3549.5,-200 3549.5,-200 3549.5,-212 3549.5,-212 3549.5,-218 3543.5,-224 3537.5,-224"/>
<text text-anchor="middle" x="3380.5" y="-202.3" font-family="Times-Roman" font-size="14.00" fill="#000000">github.com/ipfs/go&#45;ipfs/filesystem/interface/mfs</text>
</a>
</g>
</g>
<!-- github.com/ipfs/go&#45;ipfs/core/commands/filesystem/manager&#45;&gt;github.com/ipfs/go&#45;ipfs/filesystem/interface/mfs -->
<g id="edge13" class="edge">
<title>github.com/ipfs/go&#45;ipfs/core/commands/filesystem/manager&#45;&gt;github.com/ipfs/go&#45;ipfs/filesystem/interface/mfs</title>
<path fill="none" stroke="#000000" d="M2545.7664,-400C2866.9704,-400 3443,-400 3443,-400 3443,-400 3443,-229.251 3443,-229.251"/>
<polygon fill="#000000" stroke="#000000" points="3444.7501,-229.251 3443,-224.251 3441.2501,-229.2511 3444.7501,-229.251"/>
</g>
<!-- github.com/ipfs/go&#45;ipfs/filesystem/interface/pinfs -->
<g id="node11" class="node">
<title>github.com/ipfs/go&#45;ipfs/filesystem/interface/pinfs</title>
<g id="a_node11"><a xlink:href="https://godoc.org/github.com/ipfs/go-ipfs/filesystem/interface/pinfs" xlink:title="github.com/ipfs/go&#45;ipfs/filesystem/interface/pinfs" target="_blank">
<path fill="#afeeee" stroke="#afeeee" d="M3324.5,-318C3324.5,-318 3002.5,-318 3002.5,-318 2996.5,-318 2990.5,-312 2990.5,-306 2990.5,-306 2990.5,-294 2990.5,-294 2990.5,-288 2996.5,-282 3002.5,-282 3002.5,-282 3324.5,-282 3324.5,-282 3330.5,-282 3336.5,-288 3336.5,-294 3336.5,-294 3336.5,-306 3336.5,-306 3336.5,-312 3330.5,-318 3324.5,-318"/>
<text text-anchor="middle" x="3163.5" y="-296.3" font-family="Times-Roman" font-size="14.00" fill="#000000">github.com/ipfs/go&#45;ipfs/filesystem/interface/pinfs</text>
</a>
</g>
</g>
<!-- github.com/ipfs/go&#45;ipfs/core/commands/filesystem/manager&#45;&gt;github.com/ipfs/go&#45;ipfs/filesystem/interface/pinfs -->
<g id="edge14" class="edge">
<title>github.com/ipfs/go&#45;ipfs/core/commands/filesystem/manager&#45;&gt;github.com/ipfs/go&#45;ipfs/filesystem/interface/pinfs</title>
<path fill="none" stroke="#000000" d="M2545.5097,-388C2790.8133,-388 3163.5,-388 3163.5,-388 3163.5,-388 3163.5,-323.2337 3163.5,-323.2337"/>
<polygon fill="#000000" stroke="#000000" points="3165.2501,-323.2336 3163.5,-318.2337 3161.7501,-323.2337 3165.2501,-323.2336"/>
</g>
<!-- github.com/ipfs/go&#45;ipfs/core/commands/filesystem/manager/host/9p&#45;&gt;github.com/ipfs/go&#45;ipfs/core/commands/filesystem/manager/host -->
<g id="edge15" class="edge">
<title>github.com/ipfs/go&#45;ipfs/core/commands/filesystem/manager/host/9p&#45;&gt;github.com/ipfs/go&#45;ipfs/core/commands/filesystem/manager/host</title>
<path fill="none" stroke="#000000" d="M925.8333,-281.9445C925.8333,-270.561 925.8333,-258 925.8333,-258 925.8333,-258 1855.8333,-258 1855.8333,-258 1855.8333,-258 1855.8333,-229.1871 1855.8333,-229.1871"/>
<polygon fill="#000000" stroke="#000000" points="1857.5834,-229.187 1855.8333,-224.1871 1854.0834,-229.1871 1857.5834,-229.187"/>
</g>
<!-- github.com/ipfs/go&#45;ipfs/core/commands/filesystem/manager/host/9p&#45;&gt;github.com/ipfs/go&#45;ipfs/filesystem -->
<g id="edge18" class="edge">
<title>github.com/ipfs/go&#45;ipfs/core/commands/filesystem/manager/host/9p&#45;&gt;github.com/ipfs/go&#45;ipfs/filesystem</title>
<path fill="none" stroke="#000000" d="M1084.51,-300C1128.0307,-300 1160,-300 1160,-300 1160,-300 1160,-50 1160,-50 1160,-50 3147.4,-50 3147.4,-50 3147.4,-50 3147.4,-41.2434 3147.4,-41.2434"/>
<polygon fill="#000000" stroke="#000000" points="3149.1501,-41.2434 3147.4,-36.2434 3145.6501,-41.2434 3149.1501,-41.2434"/>
</g>
<!-- github.com/ipfs/go&#45;ipfs/core/commands/filesystem/manager/host/9p&#45;&gt;github.com/ipfs/go&#45;ipfs/core/commands/filesystem/manager/host/options -->
<g id="edge17" class="edge">
<title>github.com/ipfs/go&#45;ipfs/core/commands/filesystem/manager/host/9p&#45;&gt;github.com/ipfs/go&#45;ipfs/core/commands/filesystem/manager/host/options</title>
<path fill="none" stroke="#000000" d="M767.1667,-281.8759C767.1667,-281.8759 767.1667,-229.0685 767.1667,-229.0685"/>
<polygon fill="#000000" stroke="#000000" points="768.9168,-229.0685 767.1667,-224.0685 765.4168,-229.0685 768.9168,-229.0685"/>
</g>
<!-- github.com/ipfs/go&#45;ipfs/core/commands/filesystem/manager/host/9p/sys -->
<g id="node12" class="node">
<title>github.com/ipfs/go&#45;ipfs/core/commands/filesystem/manager/host/9p/sys</title>
<g id="a_node12"><a xlink:href="https://godoc.org/github.com/ipfs/go-ipfs/core/commands/filesystem/manager/host/9p/sys" xlink:title="github.com/ipfs/go&#45;ipfs/core/commands/filesystem/manager/host/9p/sys" target="_blank">
<path fill="#afeeee" stroke="#afeeee" d="M491,-224C491,-224 12,-224 12,-224 6,-224 0,-218 0,-212 0,-212 0,-200 0,-200 0,-194 6,-188 12,-188 12,-188 491,-188 491,-188 497,-188 503,-194 503,-200 503,-200 503,-212 503,-212 503,-218 497,-224 491,-224"/>
<text text-anchor="middle" x="251.5" y="-202.3" font-family="Times-Roman" font-size="14.00" fill="#000000">github.com/ipfs/go&#45;ipfs/core/commands/filesystem/manager/host/9p/sys</text>
</a>
</g>
</g>
<!-- github.com/ipfs/go&#45;ipfs/core/commands/filesystem/manager/host/9p&#45;&gt;github.com/ipfs/go&#45;ipfs/core/commands/filesystem/manager/host/9p/sys -->
<g id="edge16" class="edge">
<title>github.com/ipfs/go&#45;ipfs/core/commands/filesystem/manager/host/9p&#45;&gt;github.com/ipfs/go&#45;ipfs/core/commands/filesystem/manager/host/9p/sys</title>
<path fill="none" stroke="#000000" d="M608.3471,-300C442.7148,-300 251.5,-300 251.5,-300 251.5,-300 251.5,-229.1241 251.5,-229.1241"/>
<polygon fill="#000000" stroke="#000000" points="253.2501,-229.1241 251.5,-224.1241 249.7501,-229.1242 253.2501,-229.1241"/>
</g>
<!-- github.com/ipfs/go&#45;ipfs/filesystem/errors -->
<g id="node13" class="node">
<title>github.com/ipfs/go&#45;ipfs/filesystem/errors</title>
<g id="a_node13"><a xlink:href="https://godoc.org/github.com/ipfs/go-ipfs/filesystem/errors" xlink:title="github.com/ipfs/go&#45;ipfs/filesystem/errors" target="_blank">
<path fill="#afeeee" stroke="#afeeee" d="M2651.5,-36C2651.5,-36 2385.5,-36 2385.5,-36 2379.5,-36 2373.5,-30 2373.5,-24 2373.5,-24 2373.5,-12 2373.5,-12 2373.5,-6 2379.5,0 2385.5,0 2385.5,0 2651.5,0 2651.5,0 2657.5,0 2663.5,-6 2663.5,-12 2663.5,-12 2663.5,-24 2663.5,-24 2663.5,-30 2657.5,-36 2651.5,-36"/>
<text text-anchor="middle" x="2518.5" y="-14.3" font-family="Times-Roman" font-size="14.00" fill="#000000">github.com/ipfs/go&#45;ipfs/filesystem/errors</text>
</a>
</g>
</g>
<!-- github.com/ipfs/go&#45;ipfs/core/commands/filesystem/manager/host/9p&#45;&gt;github.com/ipfs/go&#45;ipfs/filesystem/errors -->
<g id="edge19" class="edge">
<title>github.com/ipfs/go&#45;ipfs/core/commands/filesystem/manager/host/9p&#45;&gt;github.com/ipfs/go&#45;ipfs/filesystem/errors</title>
<path fill="none" stroke="#000000" d="M1084.5549,-291C1112.0499,-291 1130.5,-291 1130.5,-291 1130.5,-291 1130.5,-12 1130.5,-12 1130.5,-12 2368.236,-12 2368.236,-12"/>
<polygon fill="#000000" stroke="#000000" points="2368.236,-13.7501 2373.236,-12 2368.2359,-10.2501 2368.236,-13.7501"/>
</g>
<!-- github.com/ipfs/go&#45;ipfs/core/commands/filesystem/manager/host/fuse&#45;&gt;github.com/ipfs/go&#45;ipfs/core/commands/filesystem/manager/host -->
<g id="edge20" class="edge">
<title>github.com/ipfs/go&#45;ipfs/core/commands/filesystem/manager/host/fuse&#45;&gt;github.com/ipfs/go&#45;ipfs/core/commands/filesystem/manager/host</title>
<path fill="none" stroke="#000000" d="M1919.6667,-281.8759C1919.6667,-281.8759 1919.6667,-229.0685 1919.6667,-229.0685"/>
<polygon fill="#000000" stroke="#000000" points="1921.4168,-229.0685 1919.6667,-224.0685 1917.9168,-229.0685 1921.4168,-229.0685"/>
</g>
<!-- github.com/ipfs/go&#45;ipfs/core/commands/filesystem/manager/host/fuse&#45;&gt;github.com/ipfs/go&#45;ipfs/filesystem -->
<g id="edge23" class="edge">
<title>github.com/ipfs/go&#45;ipfs/core/commands/filesystem/manager/host/fuse&#45;&gt;github.com/ipfs/go&#45;ipfs/filesystem</title>
<path fill="none" stroke="#000000" d="M1762.5,-281.9502C1762.5,-226.922 1762.5,-65 1762.5,-65 1762.5,-65 3176.3,-65 3176.3,-65 3176.3,-65 3176.3,-41.037 3176.3,-41.037"/>
<polygon fill="#000000" stroke="#000000" points="3178.0501,-41.037 3176.3,-36.037 3174.5501,-41.037 3178.0501,-41.037"/>
</g>
<!-- github.com/ipfs/go&#45;ipfs/core/commands/filesystem/manager/host/fuse&#45;&gt;github.com/ipfs/go&#45;ipfs/core/commands/filesystem/manager/host/options -->
<g id="edge22" class="edge">
<title>github.com/ipfs/go&#45;ipfs/core/commands/filesystem/manager/host/fuse&#45;&gt;github.com/ipfs/go&#45;ipfs/core/commands/filesystem/manager/host/options</title>
<path fill="none" stroke="#000000" d="M1495.1129,-309C1312.9302,-309 1095.5,-309 1095.5,-309 1095.5,-309 1095.5,-229.4143 1095.5,-229.4143"/>
<polygon fill="#000000" stroke="#000000" points="1097.2501,-229.4143 1095.5,-224.4143 1093.7501,-229.4144 1097.2501,-229.4143"/>
</g>
<!-- github.com/ipfs/go&#45;ipfs/core/commands/filesystem/manager/host/fuse&#45;&gt;github.com/ipfs/go&#45;ipfs/filesystem/errors -->
<g id="edge24" class="edge">
<title>github.com/ipfs/go&#45;ipfs/core/commands/filesystem/manager/host/fuse&#45;&gt;github.com/ipfs/go&#45;ipfs/filesystem/errors</title>
<path fill="none" stroke="#000000" d="M1733,-281.8909C1733,-220.4883 1733,-24 1733,-24 1733,-24 2368.0533,-24 2368.0533,-24"/>
<polygon fill="#000000" stroke="#000000" points="2368.0534,-25.7501 2373.0533,-24 2368.0533,-22.2501 2368.0534,-25.7501"/>
</g>
<!-- github.com/ipfs/go&#45;ipfs/core/commands/filesystem/manager/host/fuse/sys -->
<g id="node14" class="node">
<title>github.com/ipfs/go&#45;ipfs/core/commands/filesystem/manager/host/fuse/sys</title>
<g id="a_node14"><a xlink:href="https://godoc.org/github.com/ipfs/go-ipfs/core/commands/filesystem/manager/host/fuse/sys" xlink:title="github.com/ipfs/go&#45;ipfs/core/commands/filesystem/manager/host/fuse/sys" target="_blank">
<path fill="#afeeee" stroke="#afeeee" d="M1691.5,-224C1691.5,-224 1201.5,-224 1201.5,-224 1195.5,-224 1189.5,-218 1189.5,-212 1189.5,-212 1189.5,-200 1189.5,-200 1189.5,-194 1195.5,-188 1201.5,-188 1201.5,-188 1691.5,-188 1691.5,-188 1697.5,-188 1703.5,-194 1703.5,-200 1703.5,-200 1703.5,-212 1703.5,-212 1703.5,-218 1697.5,-224 1691.5,-224"/>
<text text-anchor="middle" x="1446.5" y="-202.3" font-family="Times-Roman" font-size="14.00" fill="#000000">github.com/ipfs/go&#45;ipfs/core/commands/filesystem/manager/host/fuse/sys</text>
</a>
</g>
</g>
<!-- github.com/ipfs/go&#45;ipfs/core/commands/filesystem/manager/host/fuse&#45;&gt;github.com/ipfs/go&#45;ipfs/core/commands/filesystem/manager/host/fuse/sys -->
<g id="edge21" class="edge">
<title>github.com/ipfs/go&#45;ipfs/core/commands/filesystem/manager/host/fuse&#45;&gt;github.com/ipfs/go&#45;ipfs/core/commands/filesystem/manager/host/fuse/sys</title>
<path fill="none" stroke="#000000" d="M1599.5,-281.8759C1599.5,-281.8759 1599.5,-229.0685 1599.5,-229.0685"/>
<polygon fill="#000000" stroke="#000000" points="1601.2501,-229.0685 1599.5,-224.0685 1597.7501,-229.0685 1601.2501,-229.0685"/>
</g>
<!-- github.com/ipfs/go&#45;ipfs/filesystem/interface/ipfscore&#45;&gt;github.com/ipfs/go&#45;ipfs/filesystem -->
<g id="edge27" class="edge">
<title>github.com/ipfs/go&#45;ipfs/filesystem/interface/ipfscore&#45;&gt;github.com/ipfs/go&#45;ipfs/filesystem</title>
<path fill="none" stroke="#000000" d="M2676.1667,-187.8198C2676.1667,-139.0508 2676.1667,-9 2676.1667,-9 2676.1667,-9 3113.3956,-9 3113.3956,-9"/>
<polygon fill="#000000" stroke="#000000" points="3113.3957,-10.7501 3118.3956,-9 3113.3956,-7.2501 3113.3957,-10.7501"/>
</g>
<!-- github.com/ipfs/go&#45;ipfs/filesystem/interface/ipfscore&#45;&gt;github.com/ipfs/go&#45;ipfs/filesystem/errors -->
<g id="edge28" class="edge">
<title>github.com/ipfs/go&#45;ipfs/filesystem/interface/ipfscore&#45;&gt;github.com/ipfs/go&#45;ipfs/filesystem/errors</title>
<path fill="none" stroke="#000000" d="M2470.1667,-187.9738C2470.1667,-187.9738 2470.1667,-41.2479 2470.1667,-41.2479"/>
<polygon fill="#000000" stroke="#000000" points="2471.9168,-41.2479 2470.1667,-36.2479 2468.4168,-41.2479 2471.9168,-41.2479"/>
</g>
<!-- github.com/ipfs/go&#45;ipfs/filesystem/interface -->
<g id="node15" class="node">
<title>github.com/ipfs/go&#45;ipfs/filesystem/interface</title>
<g id="a_node15"><a xlink:href="https://godoc.org/github.com/ipfs/go-ipfs/filesystem/interface" xlink:title="github.com/ipfs/go&#45;ipfs/filesystem/interface" target="_blank">
<path fill="#afeeee" stroke="#afeeee" d="M3251,-130C3251,-130 2966,-130 2966,-130 2960,-130 2954,-124 2954,-118 2954,-118 2954,-106 2954,-106 2954,-100 2960,-94 2966,-94 2966,-94 3251,-94 3251,-94 3257,-94 3263,-100 3263,-106 3263,-106 3263,-118 3263,-118 3263,-124 3257,-130 3251,-130"/>
<text text-anchor="middle" x="3108.5" y="-108.3" font-family="Times-Roman" font-size="14.00" fill="#000000">github.com/ipfs/go&#45;ipfs/filesystem/interface</text>
</a>
</g>
</g>
<!-- github.com/ipfs/go&#45;ipfs/filesystem/interface/ipfscore&#45;&gt;github.com/ipfs/go&#45;ipfs/filesystem/interface -->
<g id="edge29" class="edge">
<title>github.com/ipfs/go&#45;ipfs/filesystem/interface/ipfscore&#45;&gt;github.com/ipfs/go&#45;ipfs/filesystem/interface</title>
<path fill="none" stroke="#000000" d="M2688.8333,-187.6585C2688.8333,-158.7893 2688.8333,-106 2688.8333,-106 2688.8333,-106 2948.7218,-106 2948.7218,-106"/>
<polygon fill="#000000" stroke="#000000" points="2948.7218,-107.7501 2953.7218,-106 2948.7218,-104.2501 2948.7218,-107.7501"/>
</g>
<!-- github.com/ipfs/go&#45;ipfs/filesystem/interface/keyfs&#45;&gt;github.com/ipfs/go&#45;ipfs/filesystem -->
<g id="edge30" class="edge">
<title>github.com/ipfs/go&#45;ipfs/filesystem/interface/keyfs&#45;&gt;github.com/ipfs/go&#45;ipfs/filesystem</title>
<path fill="none" stroke="#000000" d="M2718.9,-281.6638C2718.9,-220.4538 2718.9,-27 2718.9,-27 2718.9,-27 3113.208,-27 3113.208,-27"/>
<polygon fill="#000000" stroke="#000000" points="3113.208,-28.7501 3118.208,-27 3113.2079,-25.2501 3113.208,-28.7501"/>
</g>
<!-- github.com/ipfs/go&#45;ipfs/filesystem/interface/keyfs&#45;&gt;github.com/ipfs/go&#45;ipfs/filesystem/interface/ipfscore -->
<g id="edge33" class="edge">
<title>github.com/ipfs/go&#45;ipfs/filesystem/interface/keyfs&#45;&gt;github.com/ipfs/go&#45;ipfs/filesystem/interface/ipfscore</title>
<path fill="none" stroke="#000000" d="M2641.5,-281.8759C2641.5,-281.8759 2641.5,-229.0685 2641.5,-229.0685"/>
<polygon fill="#000000" stroke="#000000" points="2643.2501,-229.0685 2641.5,-224.0685 2639.7501,-229.0685 2643.2501,-229.0685"/>
</g>
<!-- github.com/ipfs/go&#45;ipfs/filesystem/interface/keyfs&#45;&gt;github.com/ipfs/go&#45;ipfs/filesystem/interface/mfs -->
<g id="edge34" class="edge">
<title>github.com/ipfs/go&#45;ipfs/filesystem/interface/keyfs&#45;&gt;github.com/ipfs/go&#45;ipfs/filesystem/interface/mfs</title>
<path fill="none" stroke="#000000" d="M2884.5,-281.8939C2884.5,-262.6609 2884.5,-235 2884.5,-235 2884.5,-235 3274,-235 3274,-235 3274,-235 3274,-229.2015 3274,-229.2015"/>
<polygon fill="#000000" stroke="#000000" points="3275.7501,-229.2014 3274,-224.2015 3272.2501,-229.2015 3275.7501,-229.2014"/>
</g>
<!-- github.com/ipfs/go&#45;ipfs/filesystem/interface/keyfs&#45;&gt;github.com/ipfs/go&#45;ipfs/filesystem/errors -->
<g id="edge31" class="edge">
<title>github.com/ipfs/go&#45;ipfs/filesystem/interface/keyfs&#45;&gt;github.com/ipfs/go&#45;ipfs/filesystem/errors</title>
<path fill="none" stroke="#000000" d="M2713.1,-281.9306C2713.1,-219.6903 2713.1,-18 2713.1,-18 2713.1,-18 2668.7426,-18 2668.7426,-18"/>
<polygon fill="#000000" stroke="#000000" points="2668.7427,-16.2501 2663.7426,-18 2668.7426,-19.7501 2668.7427,-16.2501"/>
</g>
<!-- github.com/ipfs/go&#45;ipfs/filesystem/interface/keyfs&#45;&gt;github.com/ipfs/go&#45;ipfs/filesystem/interface -->
<g id="edge32" class="edge">
<title>github.com/ipfs/go&#45;ipfs/filesystem/interface/keyfs&#45;&gt;github.com/ipfs/go&#45;ipfs/filesystem/interface</title>
<path fill="none" stroke="#000000" d="M2724.7,-281.8838C2724.7,-235.849 2724.7,-118 2724.7,-118 2724.7,-118 2948.7765,-118 2948.7765,-118"/>
<polygon fill="#000000" stroke="#000000" points="2948.7766,-119.7501 2953.7765,-118 2948.7765,-116.2501 2948.7766,-119.7501"/>
</g>
<!-- github.com/ipfs/go&#45;ipfs/filesystem/interface/ufs -->
<g id="node16" class="node">
<title>github.com/ipfs/go&#45;ipfs/filesystem/interface/ufs</title>
<g id="a_node16"><a xlink:href="https://godoc.org/github.com/ipfs/go-ipfs/filesystem/interface/ufs" xlink:title="github.com/ipfs/go&#45;ipfs/filesystem/interface/ufs" target="_blank">
<path fill="#afeeee" stroke="#afeeee" d="M3052.5,-224C3052.5,-224 2742.5,-224 2742.5,-224 2736.5,-224 2730.5,-218 2730.5,-212 2730.5,-212 2730.5,-200 2730.5,-200 2730.5,-194 2736.5,-188 2742.5,-188 2742.5,-188 3052.5,-188 3052.5,-188 3058.5,-188 3064.5,-194 3064.5,-200 3064.5,-200 3064.5,-212 3064.5,-212 3064.5,-218 3058.5,-224 3052.5,-224"/>
<text text-anchor="middle" x="2897.5" y="-202.3" font-family="Times-Roman" font-size="14.00" fill="#000000">github.com/ipfs/go&#45;ipfs/filesystem/interface/ufs</text>
</a>
</g>
</g>
<!-- github.com/ipfs/go&#45;ipfs/filesystem/interface/keyfs&#45;&gt;github.com/ipfs/go&#45;ipfs/filesystem/interface/ufs -->
<g id="edge35" class="edge">
<title>github.com/ipfs/go&#45;ipfs/filesystem/interface/keyfs&#45;&gt;github.com/ipfs/go&#45;ipfs/filesystem/interface/ufs</title>
<path fill="none" stroke="#000000" d="M2807.5,-281.8759C2807.5,-281.8759 2807.5,-229.0685 2807.5,-229.0685"/>
<polygon fill="#000000" stroke="#000000" points="2809.2501,-229.0685 2807.5,-224.0685 2805.7501,-229.0685 2809.2501,-229.0685"/>
</g>
<!-- github.com/ipfs/go&#45;ipfs/filesystem/interface/mfs&#45;&gt;github.com/ipfs/go&#45;ipfs/filesystem -->
<g id="edge36" class="edge">
<title>github.com/ipfs/go&#45;ipfs/filesystem/interface/mfs&#45;&gt;github.com/ipfs/go&#45;ipfs/filesystem</title>
<path fill="none" stroke="#000000" d="M3329.3333,-187.9738C3329.3333,-187.9738 3329.3333,-41.2479 3329.3333,-41.2479"/>
<polygon fill="#000000" stroke="#000000" points="3331.0834,-41.2479 3329.3333,-36.2479 3327.5834,-41.2479 3331.0834,-41.2479"/>
</g>
<!-- github.com/ipfs/go&#45;ipfs/filesystem/interface/mfs&#45;&gt;github.com/ipfs/go&#45;ipfs/filesystem/errors -->
<g id="edge37" class="edge">
<title>github.com/ipfs/go&#45;ipfs/filesystem/interface/mfs&#45;&gt;github.com/ipfs/go&#45;ipfs/filesystem/errors</title>
<path fill="none" stroke="#000000" d="M3228.6667,-187.8903C3228.6667,-178.103 3228.6667,-168 3228.6667,-168 3228.6667,-168 2566.8333,-168 2566.8333,-168 2566.8333,-168 2566.8333,-41.0935 2566.8333,-41.0935"/>
<polygon fill="#000000" stroke="#000000" points="2568.5834,-41.0935 2566.8333,-36.0935 2565.0834,-41.0935 2568.5834,-41.0935"/>
</g>
<!-- github.com/ipfs/go&#45;ipfs/filesystem/interface/mfs&#45;&gt;github.com/ipfs/go&#45;ipfs/filesystem/interface -->
<g id="edge38" class="edge">
<title>github.com/ipfs/go&#45;ipfs/filesystem/interface/mfs&#45;&gt;github.com/ipfs/go&#45;ipfs/filesystem/interface</title>
<path fill="none" stroke="#000000" d="M3245.8333,-187.8759C3245.8333,-187.8759 3245.8333,-135.0685 3245.8333,-135.0685"/>
<polygon fill="#000000" stroke="#000000" points="3247.5834,-135.0685 3245.8333,-130.0685 3244.0834,-135.0685 3247.5834,-135.0685"/>
</g>
<!-- github.com/ipfs/go&#45;ipfs/filesystem/interface/pinfs&#45;&gt;github.com/ipfs/go&#45;ipfs/filesystem -->
<g id="edge39" class="edge">
<title>github.com/ipfs/go&#45;ipfs/filesystem/interface/pinfs&#45;&gt;github.com/ipfs/go&#45;ipfs/filesystem</title>
<path fill="none" stroke="#000000" d="M3162.5,-281.7859C3162.5,-241.6245 3162.5,-149 3162.5,-149 3162.5,-149 3296.1667,-149 3296.1667,-149 3296.1667,-149 3296.1667,-41.215 3296.1667,-41.215"/>
<polygon fill="#000000" stroke="#000000" points="3297.9168,-41.215 3296.1667,-36.215 3294.4168,-41.215 3297.9168,-41.215"/>
</g>
<!-- github.com/ipfs/go&#45;ipfs/filesystem/interface/pinfs&#45;&gt;github.com/ipfs/go&#45;ipfs/filesystem/interface/ipfscore -->
<g id="edge41" class="edge">
<title>github.com/ipfs/go&#45;ipfs/filesystem/interface/pinfs&#45;&gt;github.com/ipfs/go&#45;ipfs/filesystem/interface/ipfscore</title>
<path fill="none" stroke="#000000" d="M3027.5,-281.7604C3027.5,-266.4294 3027.5,-247 3027.5,-247 3027.5,-247 2671.5,-247 2671.5,-247 2671.5,-247 2671.5,-229.1025 2671.5,-229.1025"/>
<polygon fill="#000000" stroke="#000000" points="2673.2501,-229.1025 2671.5,-224.1025 2669.7501,-229.1026 2673.2501,-229.1025"/>
</g>
<!-- github.com/ipfs/go&#45;ipfs/filesystem/interface/pinfs&#45;&gt;github.com/ipfs/go&#45;ipfs/filesystem/interface -->
<g id="edge40" class="edge">
<title>github.com/ipfs/go&#45;ipfs/filesystem/interface/pinfs&#45;&gt;github.com/ipfs/go&#45;ipfs/filesystem/interface</title>
<path fill="none" stroke="#000000" d="M3113.5,-281.9738C3113.5,-281.9738 3113.5,-135.2479 3113.5,-135.2479"/>
<polygon fill="#000000" stroke="#000000" points="3115.2501,-135.2479 3113.5,-130.2479 3111.7501,-135.2479 3115.2501,-135.2479"/>
</g>
<!-- github.com/ipfs/go&#45;ipfs/filesystem/interface&#45;&gt;github.com/ipfs/go&#45;ipfs/filesystem -->
<g id="edge25" class="edge">
<title>github.com/ipfs/go&#45;ipfs/filesystem/interface&#45;&gt;github.com/ipfs/go&#45;ipfs/filesystem</title>
<path fill="none" stroke="#000000" d="M3234.1,-93.8759C3234.1,-93.8759 3234.1,-41.0685 3234.1,-41.0685"/>
<polygon fill="#000000" stroke="#000000" points="3235.8501,-41.0685 3234.1,-36.0685 3232.3501,-41.0685 3235.8501,-41.0685"/>
</g>
<!-- github.com/ipfs/go&#45;ipfs/filesystem/interface&#45;&gt;github.com/ipfs/go&#45;ipfs/filesystem/errors -->
<g id="edge26" class="edge">
<title>github.com/ipfs/go&#45;ipfs/filesystem/interface&#45;&gt;github.com/ipfs/go&#45;ipfs/filesystem/errors</title>
<path fill="none" stroke="#000000" d="M3036.25,-93.6793C3036.25,-62.8664 3036.25,-4 3036.25,-4 3036.25,-4 2668.7553,-4 2668.7553,-4"/>
<polygon fill="#000000" stroke="#000000" points="2668.7553,-2.2501 2663.7553,-4 2668.7552,-5.7501 2668.7553,-2.2501"/>
</g>
<!-- github.com/ipfs/go&#45;ipfs/filesystem/interface/ufs&#45;&gt;github.com/ipfs/go&#45;ipfs/filesystem -->
<g id="edge42" class="edge">
<title>github.com/ipfs/go&#45;ipfs/filesystem/interface/ufs&#45;&gt;github.com/ipfs/go&#45;ipfs/filesystem</title>
<path fill="none" stroke="#000000" d="M2879.5,-187.9311C2879.5,-143.2189 2879.5,-31 2879.5,-31 2879.5,-31 3113.2819,-31 3113.2819,-31"/>
<polygon fill="#000000" stroke="#000000" points="3113.2819,-32.7501 3118.2819,-31 3113.2818,-29.2501 3113.2819,-32.7501"/>
</g>
<!-- github.com/ipfs/go&#45;ipfs/filesystem/interface/ufs&#45;&gt;github.com/ipfs/go&#45;ipfs/filesystem/errors -->
<g id="edge43" class="edge">
<title>github.com/ipfs/go&#45;ipfs/filesystem/interface/ufs&#45;&gt;github.com/ipfs/go&#45;ipfs/filesystem/errors</title>
<path fill="none" stroke="#000000" d="M2805,-187.843C2805,-139.7983 2805,-13 2805,-13 2805,-13 2668.8483,-13 2668.8483,-13"/>
<polygon fill="#000000" stroke="#000000" points="2668.8484,-11.2501 2663.8483,-13 2668.8483,-14.7501 2668.8484,-11.2501"/>
</g>
<!-- github.com/ipfs/go&#45;ipfs/filesystem/interface/ufs&#45;&gt;github.com/ipfs/go&#45;ipfs/filesystem/interface -->
<g id="edge44" class="edge">
<title>github.com/ipfs/go&#45;ipfs/filesystem/interface/ufs&#45;&gt;github.com/ipfs/go&#45;ipfs/filesystem/interface</title>
<path fill="none" stroke="#000000" d="M3009.25,-187.8759C3009.25,-187.8759 3009.25,-135.0685 3009.25,-135.0685"/>
<polygon fill="#000000" stroke="#000000" points="3011.0001,-135.0685 3009.25,-130.0685 3007.5001,-135.0685 3011.0001,-135.0685"/>
</g>
</g>
</svg>
